<svg xmlns="http://www.w3.org/2000/svg" width="200" height="60" version="1.1"><path fill="#FDFDFD" d="M0 0 C66 0 132 0 200 0 C200 19.8 200 39.6 200 60 C134 60 68 60 0 60 C0 40.2 0 20.4 0 0 Z" transform="translate(0,0)"/><path fill="#FAFAFA" d="M0 0 C8.95908347 -1.31751227 8.95908347 -1.31751227 14 0 C18.54790272 3.98211553 21.38531526 9.6380889 24 15 C24 15.66 24 16.32 24 17 C24.66 17 25.32 17 26 17 C26.25652344 16.29359375 26.51304688 15.5871875 26.77734375 14.859375 C28.1051216 11.75415651 29.72826744 9.08367869 31.5625 6.25 C32.49255859 4.80367187 32.49255859 4.80367187 33.44140625 3.328125 C35 1 35 1 36 0 C40.66845228 -0.14426614 45.32865953 -0.04208415 50 0 C50 8.91 50 17.82 50 27 C45.71 27 41.42 27 37 27 C36.505 21.555 36.505 21.555 36 16 C35.57847656 16.71027344 35.15695313 17.42054687 34.72265625 18.15234375 C34.17480469 19.07144531 33.62695312 19.99054687 33.0625 20.9375 C32.24458984 22.31228516 32.24458984 22.31228516 31.41015625 23.71484375 C30 26 30 26 29 27 C25.99668982 27.14193337 23.00782866 27.04236378 20 27 C17.69 22.71 15.38 18.42 13 14 C12.67 18.29 12.34 22.58 12 27 C8.04 27 4.08 27 0 27 C0 18.09 0 9.18 0 0 Z" transform="translate(9,14)"/><path fill="#FBFBFB" d="M0 0 C6.1875 -0.0928125 6.1875 -0.0928125 12.5 -0.1875 C13.78455078 -0.21481201 15.06910156 -0.24212402 16.39257812 -0.27026367 C22.97261695 -0.31786352 28.09421084 -0.01617089 34 3 C36.47717167 6.71575751 36.30345742 8.59986738 36 13 C35.62875 13.845625 35.2575 14.69125 34.875 15.5625 C33.66482735 18.93369523 34.72467187 20.7408281 36 24 C36 24.99 36 25.98 36 27 C32.37 27 28.74 27 25 27 C24.690625 26.030625 24.38125 25.06125 24.0625 24.0625 C22.37918483 20.85054552 22.37918483 20.85054552 19.796875 20.37890625 C17.52061916 20.14627004 15.28756601 20.00959147 13 20 C13 22.31 13 24.62 13 27 C8.71 27 4.42 27 0 27 C0 18.09 0 9.18 0 0 Z" transform="translate(156,14)"/><path fill="#FBFBFB" d="M0 0 C6.2184375 -0.0928125 6.2184375 -0.0928125 12.5625 -0.1875 C13.85615479 -0.21481201 15.14980957 -0.24212402 16.48266602 -0.27026367 C22.76237538 -0.31558166 27.51289063 -0.1783677 33 3 C35 5 35 5 35.23046875 7.09375 C35.21628906 7.8878125 35.20210937 8.681875 35.1875 9.5 C35.18105469 10.2940625 35.17460937 11.088125 35.16796875 11.90625 C35 14 35 14 34 16 C33.34 16 32.68 16 32 16 C32.474375 16.70125 32.94875 17.4025 33.4375 18.125 C35.08739857 21.16081337 35.60368464 23.59168786 36 27 C32.04 27 28.08 27 24 27 C23.690625 26.030625 23.38125 25.06125 23.0625 24.0625 C21.37918483 20.85054552 21.37918483 20.85054552 18.796875 20.37890625 C16.52061916 20.14627004 14.28756601 20.00959147 12 20 C12 22.31 12 24.62 12 27 C8.04 27 4.08 27 0 27 C0 18.09 0 9.18 0 0 Z" transform="translate(118,14)"/><path fill="#FCFCFC" d="M0 0 C6.2184375 -0.0928125 6.2184375 -0.0928125 12.5625 -0.1875 C13.85615479 -0.21481201 15.14980957 -0.24212402 16.48266602 -0.27026367 C23.6369862 -0.32189336 29.46809692 -0.30403837 34.9375 4.8125 C36.35103462 7.72271834 36.34013223 9.80275702 36 13 C35.34 13.99 34.68 14.98 34 16 C34.29485154 17.85266073 34.29485154 17.85266073 35 20 C35.3496418 22.33094534 35.68554487 24.66404762 36 27 C32.37 27 28.74 27 25 27 C24.71125 26.05125 24.4225 25.1025 24.125 24.125 C21.65162738 20.48768733 20.94871195 20.42065039 16.8125 19.625 C15.21181405 19.39142351 13.60814495 19.17499514 12 19 C12 21.64 12 24.28 12 27 C8.04 27 4.08 27 0 27 C0 18.09 0 9.18 0 0 Z" transform="translate(79,14)"/><path fill="#454545" d="M0 0 C8.95908347 -1.31751227 8.95908347 -1.31751227 14 0 C18.54790272 3.98211553 21.38531526 9.6380889 24 15 C24 15.66 24 16.32 24 17 C24.66 17 25.32 17 26 17 C26.25652344 16.29359375 26.51304688 15.5871875 26.77734375 14.859375 C28.1051216 11.75415651 29.72826744 9.08367869 31.5625 6.25 C32.49255859 4.80367187 32.49255859 4.80367187 33.44140625 3.328125 C35 1 35 1 36 0 C40.66845228 -0.14426614 45.32865953 -0.04208415 50 0 C50 8.91 50 17.82 50 27 C45.71 27 41.42 27 37 27 C36.505 21.555 36.505 21.555 36 16 C35.57847656 16.71027344 35.15695313 17.42054687 34.72265625 18.15234375 C34.17480469 19.07144531 33.62695312 19.99054687 33.0625 20.9375 C32.24458984 22.31228516 32.24458984 22.31228516 31.41015625 23.71484375 C30 26 30 26 29 27 C25.99668982 27.14193337 23.00782866 27.04236378 20 27 C17.69 22.71 15.38 18.42 13 14 C12.67 18.29 12.34 22.58 12 27 C8.04 27 4.08 27 0 27 C0 18.09 0 9.18 0 0 Z M2 2 C2 9.59 2 17.18 2 25 C4.97 25 7.94 25 11 25 C11.33 20.05 11.66 15.1 12 10 C12.556875 11.0828125 13.11375 12.165625 13.6875 13.28125 C14.45672984 14.68837776 15.22765261 16.09458099 16 17.5 C16.36222656 18.21542969 16.72445313 18.93085937 17.09765625 19.66796875 C19.25141172 23.51942308 19.25141172 23.51942308 22.921875 25.73242188 C25.28432872 25.96555876 26.77799849 25.84679936 29 25 C31.26875506 22.80587504 32.58327385 20.29816019 34 17.5 C34.39316406 16.78457031 34.78632812 16.06914062 35.19140625 15.33203125 C36.1549873 13.56938299 37.08126339 11.7864323 38 10 C38.495 17.425 38.495 17.425 39 25 C41.97 25 44.94 25 48 25 C48 17.41 48 9.82 48 2 C41.86855933 0.80053903 41.86855933 0.80053903 36 2 C32.02461856 6.11352211 29.47435167 11.44526785 26.95458984 16.53125 C26.48206787 17.25828125 26.48206787 17.25828125 26 18 C25.34 18 24.68 18 24 18 C23.04541016 16.53125 23.04541016 16.53125 22.0390625 14.5 C18.0077388 5.96796862 18.0077388 5.96796862 10.671875 0.9375 C7.00426491 0.91674878 7.00426491 0.91674878 2 2 Z" transform="translate(9,14)"/><path fill="#F3F3F3" d="M0 0 C3.96 0 7.92 0 12 0 C12 8.91 12 17.82 12 27 C8.04 27 4.08 27 0 27 C0 18.09 0 9.18 0 0 Z" transform="translate(63,14)"/><path fill="#484848" d="M0 0 C6.1875 -0.0928125 6.1875 -0.0928125 12.5 -0.1875 C13.78455078 -0.21481201 15.06910156 -0.24212402 16.39257812 -0.27026367 C22.97261695 -0.31786352 28.09421084 -0.01617089 34 3 C36.47717167 6.71575751 36.30345742 8.59986738 36 13 C35.62875 13.845625 35.2575 14.69125 34.875 15.5625 C33.66482735 18.93369523 34.72467187 20.7408281 36 24 C36 24.99 36 25.98 36 27 C32.37 27 28.74 27 25 27 C24.690625 26.030625 24.38125 25.06125 24.0625 24.0625 C22.37918483 20.85054552 22.37918483 20.85054552 19.796875 20.37890625 C17.52061916 20.14627004 15.28756601 20.00959147 13 20 C13 22.31 13 24.62 13 27 C8.71 27 4.42 27 0 27 C0 18.09 0 9.18 0 0 Z M2 2 C2 9.59 2 17.18 2 25 C4.97 25 7.94 25 11 25 C11 22.69 11 20.38 11 18 C14.74916048 18.01292814 18.33918109 18.15273624 22 19 C23.39712274 20.95597184 24.73779907 22.95436401 26 25 C28.83619028 25.55839224 31.08296848 25.29170315 34 25 C33.73343428 22.06556598 33.73343428 22.06556598 33 19 C32.01 18.34 31.02 17.68 30 17 C30.845625 16.319375 31.69125 15.63875 32.5625 14.9375 C35.34294977 12.16862919 35.34294977 12.16862919 35.25 8.375 C34.3231945 4.80586021 34.3231945 4.80586021 31.23046875 3.30078125 C25.72790655 1.16693307 19.86713885 1.68380136 14.0625 1.8125 C12.90169922 1.82603516 11.74089844 1.83957031 10.54492188 1.85351562 C7.69641316 1.8886824 4.84814509 1.94248323 2 2 Z" transform="translate(156,14)"/><path fill="#565656" d="M0 0 C6.2184375 -0.0928125 6.2184375 -0.0928125 12.5625 -0.1875 C13.85615479 -0.21481201 15.14980957 -0.24212402 16.48266602 -0.27026367 C23.6369862 -0.32189336 29.46809692 -0.30403837 34.9375 4.8125 C36.35103462 7.72271834 36.34013223 9.80275702 36 13 C35.34 13.99 34.68 14.98 34 16 C34.29485154 17.85266073 34.29485154 17.85266073 35 20 C35.3496418 22.33094534 35.68554487 24.66404762 36 27 C32.37 27 28.74 27 25 27 C24.71125 26.05125 24.4225 25.1025 24.125 24.125 C21.65162738 20.48768733 20.94871195 20.42065039 16.8125 19.625 C15.21181405 19.39142351 13.60814495 19.17499514 12 19 C12 21.64 12 24.28 12 27 C8.04 27 4.08 27 0 27 C0 18.09 0 9.18 0 0 Z M2 2 C2 9.59 2 17.18 2 25 C4.64 25 7.28 25 10 25 C10 22.69 10 20.38 10 18 C11.77174819 18.08723378 13.54247377 18.19541655 15.3125 18.3125 C16.29863281 18.37050781 17.28476563 18.42851563 18.30078125 18.48828125 C21.29337508 19.05561814 22.2223993 19.57809095 24 22 C24.33 22.99 24.66 23.98 25 25 C27.97 25 30.94 25 34 25 C33.22520264 22.00847418 33.22520264 22.00847418 32 19 C31.01 18.67 30.02 18.34 29 18 C29 17.34 29 16.68 29 16 C29.639375 15.87625 30.27875 15.7525 30.9375 15.625 C31.618125 15.41875 32.29875 15.2125 33 15 C34.52491998 11.95016004 34.23562548 9.3576631 34 6 C32.58778065 3.88167098 31.65897565 3.2132903 29.25683594 2.43579102 C26.50894507 1.90517816 23.93971942 1.88806266 21.140625 1.90234375 C20.02558594 1.90556641 18.91054687 1.90878906 17.76171875 1.91210938 C16.02341797 1.92467773 16.02341797 1.92467773 14.25 1.9375 C13.07566406 1.94201172 11.90132812 1.94652344 10.69140625 1.95117188 C7.79424905 1.96294894 4.89711807 1.98088412 2 2 Z" transform="translate(79,14)"/><path fill="#333" d="M0 0 C6.2184375 -0.0928125 6.2184375 -0.0928125 12.5625 -0.1875 C13.85615479 -0.21481201 15.14980957 -0.24212402 16.48266602 -0.27026367 C22.76237538 -0.31558166 27.51289063 -0.1783677 33 3 C35 5 35 5 35.23046875 7.09375 C35.21628906 7.8878125 35.20210937 8.681875 35.1875 9.5 C35.18105469 10.2940625 35.17460937 11.088125 35.16796875 11.90625 C35 14 35 14 34 16 C33.34 16 32.68 16 32 16 C32.474375 16.70125 32.94875 17.4025 33.4375 18.125 C35.08739857 21.16081337 35.60368464 23.59168786 36 27 C32.04 27 28.08 27 24 27 C23.690625 26.030625 23.38125 25.06125 23.0625 24.0625 C21.37918483 20.85054552 21.37918483 20.85054552 18.796875 20.37890625 C16.52061916 20.14627004 14.28756601 20.00959147 12 20 C12 22.31 12 24.62 12 27 C8.04 27 4.08 27 0 27 C0 18.09 0 9.18 0 0 Z M1 2 C1 9.59 1 17.18 1 25 C3.97 25 6.94 25 10 25 C10 22.69 10 20.38 10 18 C11.77174819 18.08723378 13.54247377 18.19541655 15.3125 18.3125 C16.29863281 18.37050781 17.28476563 18.42851563 18.30078125 18.48828125 C21.29337508 19.05561814 22.2223993 19.57809095 24 22 C24.33 22.99 24.66 23.98 25 25 C27.64 25 30.28 25 33 25 C33 23.35 33 21.7 33 20 C31.68 19.34 30.36 18.68 29 18 C29 17.34 29 16.68 29 16 C29.639375 15.87625 30.27875 15.7525 30.9375 15.625 C31.618125 15.41875 32.29875 15.2125 33 15 C34.54163175 11.9167365 34.29747535 9.39121901 34 6 C31.18326403 3.0861352 28.32436843 2.05512768 24.27270508 1.88647461 C23.19915771 1.89171143 22.12561035 1.89694824 21.01953125 1.90234375 C19.27446289 1.90717773 19.27446289 1.90717773 17.49414062 1.91210938 C15.67172852 1.92467773 15.67172852 1.92467773 13.8125 1.9375 C11.97268555 1.94426758 11.97268555 1.94426758 10.09570312 1.95117188 C7.06378135 1.96296924 4.0318846 1.98090486 1 2 Z" transform="translate(118,14)"/><path fill="#3C3C3C" d="M0 0 C3.83473284 -0.35671933 5.55342875 -0.29771416 8.8125 1.875 C11.47173152 4.45825348 11.95153268 5.24067862 12.1875 8.9375 C12 12 12 12 10 15 C10.29485154 16.85266073 10.29485154 16.85266073 11 19 C11.3496418 21.33094534 11.68554487 23.66404762 12 26 C8.37 26 4.74 26 1 26 C0.71125 25.05125 0.4225 24.1025 0.125 23.125 C-2.34837262 19.48768733 -3.05128805 19.42065039 -7.1875 18.625 C-8.78818595 18.39142351 -10.39185505 18.17499514 -12 18 C-12 20.31 -12 22.62 -12 25 C-12.33 25 -12.66 25 -13 25 C-13 22.36 -13 19.72 -13 17 C-3.90495571 16.37514963 -3.90495571 16.37514963 -0.375 18.8125 C1 21 1 21 1 24 C4.96 23.505 4.96 23.505 9 23 C7.88145414 19.27385847 7.88145414 19.27385847 5 17 C5 16.34 5 15.68 5 15 C5.99 14.67 6.98 14.34 8 14 C9.50662097 10.98675805 9.17770373 8.31713623 9 5 C6.3144406 2.3144406 3.62378672 1.93950026 0 1 C0 0.67 0 0.34 0 0 Z" transform="translate(103,15)"/><path fill="#3C3C3C" d="M0 0 C3.96 0 7.92 0 12 0 C12 8.91 12 17.82 12 27 C8.04 27 4.08 27 0 27 C0 18.09 0 9.18 0 0 Z M1 1 C1 8.92 1 16.84 1 25 C3.97 25 6.94 25 10 25 C10 17.08 10 9.16 10 1 C7.03 1 4.06 1 1 1 Z" transform="translate(63,14)"/><path fill="#5D5D5D" d="M0 0 C10.07295296 -0.62521777 10.07295296 -0.62521777 13.6875 1.8125 C15 4 15 4 15 7 C17.64 7 20.28 7 23 7 C23.33 5.68 23.66 4.36 24 3 C26 6.75 26 6.75 26 9 C22.04 9 18.08 9 14 9 C13.690625 8.030625 13.38125 7.06125 13.0625 6.0625 C11.37918483 2.85054552 11.37918483 2.85054552 8.796875 2.37890625 C6.52061916 2.14627004 4.28756601 2.00959147 2 2 C2 4.31 2 6.62 2 9 C-1.96 9 -5.92 9 -10 9 C-9.67 8.34 -9.34 7.68 -9 7 C-6.03 7 -3.06 7 0 7 C0 4.69 0 2.38 0 0 Z" transform="translate(128,32)"/><path fill="#3E3E3E" d="M0 0 C1.93719378 -0.05406122 3.87481921 -0.09282025 5.8125 -0.125 C6.89144531 -0.14820312 7.97039062 -0.17140625 9.08203125 -0.1953125 C12 0 12 0 15 2 C15 3.32 15 4.64 15 6 C12.11584117 7.44207941 9.58278472 7.09394887 6.375 7.0625 C5.18648438 7.05347656 3.99796875 7.04445313 2.7734375 7.03515625 C1.85820313 7.02355469 0.94296875 7.01195312 0 7 C0 4.69 0 2.38 0 0 Z" transform="translate(89,20)"/><path fill="#404040" d="M0 0 C1.93719378 -0.05406122 3.87481921 -0.09282025 5.8125 -0.125 C6.89144531 -0.14820312 7.97039062 -0.17140625 9.08203125 -0.1953125 C12 0 12 0 15 2 C14.125 5.875 14.125 5.875 13 7 C10.81360547 7.07258946 8.62499611 7.08373783 6.4375 7.0625 C4.64119141 7.04896484 4.64119141 7.04896484 2.80859375 7.03515625 C1.88175781 7.02355469 0.95492187 7.01195312 0 7 C0 4.69 0 2.38 0 0 Z" transform="translate(128,20)"/><path fill="#353535" d="M0 0 C1.74965358 -0.05429959 3.49979787 -0.09292823 5.25 -0.125 C6.22453125 -0.14820312 7.1990625 -0.17140625 8.203125 -0.1953125 C11.0196498 0.00137219 12.60949036 0.55431084 15 2 C14.125 5.875 14.125 5.875 13 7 C10.81360547 7.07258946 8.62499611 7.08373783 6.4375 7.0625 C4.64119141 7.04896484 4.64119141 7.04896484 2.80859375 7.03515625 C1.88175781 7.02355469 0.95492187 7.01195312 0 7 C0 4.69 0 2.38 0 0 Z" transform="translate(167,20)"/><path fill="#E9E9E9" d="M0 0 C3.63 0 7.26 0 11 0 C11.33 0.99 11.66 1.98 12 3 C9.47524538 4.26237731 7.68799534 4.09856404 4.875 4.0625 C3.96492187 4.05347656 3.05484375 4.04445313 2.1171875 4.03515625 C1.41851562 4.02355469 0.71984375 4.01195312 0 4 C0 2.68 0 1.36 0 0 Z" transform="translate(168,22)"/><path fill="#ECECEC" d="M0 0 C3.63 0 7.26 0 11 0 C11.33 0.99 11.66 1.98 12 3 C9.47524538 4.26237731 7.68799534 4.09856404 4.875 4.0625 C3.96492188 4.05347656 3.05484375 4.04445313 2.1171875 4.03515625 C1.41851562 4.02355469 0.71984375 4.01195312 0 4 C0 2.68 0 1.36 0 0 Z" transform="translate(91,22)"/><path fill="#646464" d="M0 0 C2.97 0.33 5.94 0.66 9 1 C9 1.33 9 1.66 9 2 C6.69 2 4.38 2 2 2 C2 4.31 2 6.62 2 9 C-1.96 9 -5.92 9 -10 9 C-9.67 8.34 -9.34 7.68 -9 7 C-6.03 7 -3.06 7 0 7 C0 4.69 0 2.38 0 0 Z" transform="translate(128,32)"/><path fill="#F0F0F0" d="M0 0 C3.63 0 7.26 0 11 0 C11 0.99 11 1.98 11 3 C8.59454362 4.20272819 7.05003047 4.10071472 4.375 4.0625 C3.14910156 4.04896484 3.14910156 4.04896484 1.8984375 4.03515625 C0.95871094 4.01775391 0.95871094 4.01775391 0 4 C0 2.68 0 1.36 0 0 Z" transform="translate(130,22)"/><path fill="#5E5E5E" d="M0 0 C1.45922693 0.11409593 2.91740598 0.24165544 4.375 0.375 C5.59316406 0.47941406 5.59316406 0.47941406 6.8359375 0.5859375 C9 1 9 1 11 3 C7.37 3 3.74 3 0 3 C0 2.01 0 1.02 0 0 Z" transform="translate(181,38)"/><path fill="#292929" d="M0 0 C1.60379341 -0.05416188 3.20811406 -0.09286638 4.8125 -0.125 C5.70582031 -0.14820312 6.59914062 -0.17140625 7.51953125 -0.1953125 C10 0 10 0 13 2 C12.67 3.32 12.34 4.64 12 6 C11.505 5.360625 11.01 4.72125 10.5 4.0625 C7.01193613 1.18484731 4.46538959 1.29769264 0 1 C0 0.67 0 0.34 0 0 Z" transform="translate(129,32)"/></svg>